# xmcd
#
# Track frame offsets:
#	150
#	15932
#	34257
#	54017
#	71837
#	85892
#
# Disc length: 1324 seconds
#
# Revision: 1
# Processed by: cddbd v1.5.2PL0 Copyright (c) Steve Scherf et al.
# Submitted via: audiograbber 1.83.01
#
DISCID=3f052a06
DTITLE=Kimber Clayton - Kimber Clayton
DYEAR=2000
DGENRE=Country
TTITLE0=What's on my mind
TTITLE1=Shoo-rah
TTITLE2=Kis of a southern son
TTITLE3=Feel for me
TTITLE4=Wreckin' ball
TTITLE5=1-800 used to be
EXTD=
EXTT0=
EXTT1=
EXTT2=
EXTT3=
EXTT4=
EXTT5=
PLAYORDER=
